<svg xmlns="http://www.w3.org/2000/svg" width="1024" height="1024"><path fill="#d7f703" d="m281.293 19.733 6.246-.014c5.669-.012 11.337-.012 17.005-.01 6.135 0 12.27-.01 18.404-.02q18-.023 36-.023a52736 52736 0 0 0 37.75-.017l2.125-.001q29.553-.019 59.106-.02h2.247l11.272.001h6.788q35.179.002 70.358-.04a64052 64052 0 0 1 89.802-.046c11.12 0 22.24-.013 33.36-.03q16.806-.025 33.612-.006c6.053.006 12.106.007 18.16-.01 24.462-.067 48.34.059 72.472 4.503l2.513.456c4.933.918 9.685 2.11 14.487 3.544l3.15.928C841.583 36.558 866.04 46.88 888 62l2.073 1.396c9.211 6.213 17.853 12.838 26.17 20.206 2.704 2.454 2.704 2.454 5.757 4.398v2l1.734.75c2.616 1.443 4.414 3.132 6.516 5.25l2.14 2.125C934 100 934 100 934 102h2c1.417 1.549 2.758 3.168 4.063 4.813 3.547 4.454 3.547 4.454 7.18 8.84 29.835 35.303 48.548 80.928 53.472 126.7q.258 2.415.552 4.825c1.069 9.748.878 19.532.873 29.325l.01 6.281q.01 8.607.01 17.214c.002 6.195.01 12.39.016 18.586q.02 21.372.025 42.744.004 10.576.01 21.154a186767 186767 0 0 1 .03 93.05c.003 24.474.02 48.948.042 73.421a85864 85864 0 0 1 .04 88.428q.005 16.866.027 33.732.022 16.992.01 33.984-.008 9.186.011 18.371c.158 72.678-13.7 142.505-66.336 196.637a296 296 0 0 1-4.95 4.817c-2.232 2.225-4.119 4.617-6.085 7.078a71 71 0 0 1-3.437 3.125l-2.114 1.8L917 939l-2.918 2.543c-58.367 50.625-126.804 62.805-201.69 62.718-5.893-.004-11.787.003-17.68.008-11.512.01-23.024.007-34.537.002a38942 38942 0 0 0-38.26-.001c-25.395.006-50.79 0-76.184-.01q-33.75-.014-67.501 0a114058 114058 0 0 1-84.176.008h-2.02q-15.023-.004-30.044.005-17.103.009-34.205-.007-8.709-.009-17.418 0c-54.042.056-102.805-4.378-151.367-30.266l-2.202-1.16C142.409 965.23 129.547 956.381 117 946l-2.941-2.379C101.114 933.033 89.244 921.227 79 908a981 981 0 0 0-2.633-3.223C69.461 896.293 63.547 887.423 58 878l-1.246-2.092c-21.65-36.613-33.374-78.029-34.066-120.53l-.062-3.367q-.097-5.615-.18-11.229l-.064-4.062c-.615-40.017-.53-80.04-.517-120.06a56711 56711 0 0 0 0-34.551q-.004-32.685.006-65.371.006-27.933-.001-55.864a168917 168917 0 0 1-.004-72.345v-3.467q.002-11.99-.002-23.98-.005-14.606.003-29.21.005-7.425 0-14.849C21.832 259.2 21.832 259.2 25 236l.304-2.242C31.274 191.288 49.468 151.572 76 118l1.32-1.67C89.438 101.21 103.478 86.63 119 75l2.727-2.137c46.187-35.667 101.598-53.23 159.566-53.13"/><path d="M259 223h194l1 238c5.629-11.25 5.629-11.25 11.242-22.51q2.036-4.09 4.075-8.18 1.054-2.114 2.105-4.23c4.059-8.165 8.19-16.284 12.46-24.342 5.382-10.16 10.509-20.44 15.618-30.738 6.662-13.428 13.455-26.77 20.5-40l1.238-2.325 2.32-4.356c4.202-7.898 8.256-15.859 12.23-23.875 13.62-27.47 13.62-27.47 20.315-40.076a1445 1445 0 0 0 7.557-14.434l.961-1.86q1.912-3.697 3.818-7.397 1.325-2.574 2.655-5.146l1.552-3.013C574 226 574 226 576 223c2.996-.294 5.784-.39 8.782-.36l2.79-.009c3.103-.004 6.206.012 9.31.028h6.65c6.035-.002 12.07.016 18.105.037 6.3.019 12.601.02 18.902.024q15.871.013 31.742.054a24130 24130 0 0 0 44.84.075c27.96.031 55.92.084 83.879.151-1.948 4.014-4.317 7.705-6.75 11.438l-1.486 2.286c-5.422 8.32-10.942 16.576-16.463 24.83q-3.985 5.97-7.957 11.946a7853 7853 0 0 1-32.847 49.012c-12.485 18.462-24.805 37.026-37.049 55.65l-1.776 2.701-1.748 2.66a3950 3950 0 0 1-15.236 22.977l-1.175 1.759-4.71 7.05c-4.957 7.415-9.903 14.839-14.85 22.261l-6.008 9.011q-1.408 2.115-2.812 4.231a516 516 0 0 1-7.1 10.446l-1.43 2.07a286 286 0 0 1-2.714 3.856c-2.287 3.222-2.287 3.222-2.779 7.025 1.6 3.22 3.585 6.181 5.577 9.166q1.51 2.296 3.016 4.594l1.623 2.469c2.91 4.454 5.76 8.946 8.611 13.437l1.796 2.823q4.946 7.785 9.86 15.592a1769 1769 0 0 0 15.688 24.434 948 948 0 0 1 11.065 17.43 838 838 0 0 0 8.779 13.784 4073 4073 0 0 1 29.787 46.588c5.221 8.281 10.521 16.51 15.842 24.728l1.445 2.232 2.733 4.216A2211 2211 0 0 1 763 673c9.7 15.282 9.7 15.282 19.5 30.5 4.692 7.228 9.324 14.494 13.946 21.768q6.916 10.876 13.866 21.732l2.044 3.196c2.862 4.471 5.726 8.94 8.62 13.39l1.288 1.984q1.613 2.479 3.232 4.953C827 773 827 773 828 776H602l-3-8a93 93 0 0 0-2.46-4.715l-1.41-2.539-1.505-2.683A943 943 0 0 1 580.5 733.5a1151 1151 0 0 0-14.05-26.332c-3.571-6.512-7.033-13.074-10.45-19.668a1022 1022 0 0 0-11.625-21.812c-5.11-9.308-10.102-18.675-15.062-28.063l-1.158-2.19-4.672-8.844a11127 11127 0 0 0-12.17-22.966l-1.061-1.997a7814 7814 0 0 0-16.934-31.671 1931 1931 0 0 1-12.954-24.63c-3.986-7.673-8.122-15.259-12.357-22.797-2.242-4.045-4.289-8.045-5.976-12.354-2.42-6.166-5.255-12.162-8.031-18.176l-1 284H259z"/><path fill="#c0e20d" d="M453 491c3.106 3.106 3.813 4.892 5 9l-1.476 1.21c-1.947 2.287-1.902 3.447-1.909 6.423l-.028 2.9.014 3.192-.02 3.386c-.019 3.763-.016 7.527-.013 11.29l-.031 8.07q-.034 8.702-.04 17.405c-.006 8.388-.029 16.776-.056 25.164q-.063 20.412-.095 40.825-.03 19.83-.084 39.662l-.006 2.468-.034 12.26Q454.084 725.129 454 776h-1z"/><path fill="#738306" d="m98 94 1 3-2.082 1.863-2.73 2.45-2.708 2.425L89 106l-1.762 1.543c-1.385 1.397-1.385 1.397-1.656 3.394-.836 2.962-2.56 4.107-4.894 6.063-3.028 2.562-5.917 5.16-8.688 8 1.377-4.103 3.236-6.668 6.188-9.812l2.445-2.637L83 110a649 649 0 0 0 3.563-4.125C90.178 101.717 94.06 97.848 98 94"/><path fill="#5c6709" d="M165 976c4.898.48 7.863 1.441 12 4q2.74 1.286 5.52 2.48l3.095 1.338 3.197 1.37 3.256 1.404A3679 3679 0 0 0 200 990c-3.604 1.201-4.338.726-7.754-.695l-2.842-1.172-2.966-1.258-2.885-1.187c-6.325-2.635-12.466-5.544-18.553-8.688z"/><path fill="#545f06" d="M783 23a113.4 113.4 0 0 1 22.188 2.938l2.25.514c5.306 1.292 5.306 1.292 7.562 3.548q-3.814-.427-7.625-.875l-2.16-.238C800.903 28.372 797.11 27.462 793 26a147 147 0 0 0-5.375-1.125l-2.648-.508L783 24z"/><path fill="#bdd805" d="M453 491c3.106 3.106 3.813 4.892 5 9l-1.437 1c-2.42 3.098-2.245 6.12-2.563 10h-1z"/><path fill="#5a6704" d="m128 68 2 1-2.687 2.188a74 74 0 0 0-5.876 5.437C118.034 79.942 114.253 81.953 110 84c3.534-4.539 7.195-7.967 11.813-11.375l1.81-1.363A762 762 0 0 1 128 68"/><path fill="#707b0b" d="m821 989 6 1c-2.694 2.694-5.226 3.137-8.875 4.188l-3.742 1.105c-3.072.642-4.527.834-7.383-.293 3.435-2.29 4.985-2.178 9-2v-2h5z"/><path fill="#546207" d="m98 94 1 3q-2.341 2.127-4.687 4.25l-2.637 2.39c-2.5 2.205-5.055 4.301-7.676 6.36 1.659-4.325 4.871-7.094 8.125-10.25l1.707-1.68Q95.911 96.03 98 94"/><path fill="#6a7408" d="m150 968 7 1v2h3l1 3c-4.043-1.222-7.493-2.628-11-5z"/><path fill="#616c02" d="M152 54v2c-3.071 2.953-5.833 3.527-10 4 5.6-6 5.6-6 10-6"/><path fill="#6a730b" d="M987 831c.955 2.17 1.144 3.563.398 5.824-.757 1.744-1.574 3.462-2.398 5.176-1.244-3.732-.778-6.18 0-10z"/><path fill="#b6d201" d="m717 349 1 4c-1.937 2.25-1.937 2.25-4 4l-2-1z"/></svg>