<?xml version="1.0" encoding="UTF-8"?>
<svg version="1.1" xmlns="http://www.w3.org/2000/svg" width="1024" height="1024">
<path d="M0 0 C2.08216792 -0.00374588 4.16433443 -0.00835109 6.24649876 -0.01373065 C11.91486545 -0.02586052 17.58317269 -0.02571211 23.25154936 -0.02334189 C29.38614328 -0.02293116 35.52071878 -0.03399723 41.65530396 -0.04345703 C53.65506891 -0.06001351 65.65480887 -0.06559021 77.65458224 -0.06668179 C87.41836714 -0.06760412 97.18214573 -0.07173761 106.94592857 -0.07808304 C109.76580832 -0.07987839 112.58568807 -0.08165802 115.40556782 -0.08343279 C116.45739881 -0.08409594 116.45739881 -0.08409594 117.53047891 -0.08477248 C137.23234367 -0.0970665 156.93420625 -0.10497509 176.63607502 -0.10408592 C177.37759145 -0.10405476 178.11910789 -0.10402361 178.88309452 -0.10399151 C182.64060387 -0.10382531 186.39811323 -0.10362724 190.15562258 -0.10342209 C191.27481322 -0.10336225 191.27481322 -0.10336225 192.41661377 -0.10330121 C193.92546336 -0.10322033 195.43431295 -0.10313674 196.94316254 -0.10305043 C220.39590496 -0.1018261 243.84858946 -0.11682237 267.30131531 -0.14419556 C293.70979232 -0.1750066 320.11823128 -0.1921226 346.52672738 -0.19026911 C349.35006503 -0.19011988 352.17340268 -0.19002245 354.99674034 -0.18996048 C356.03934226 -0.18992552 356.03934226 -0.18992552 357.10300684 -0.18988985 C368.22337285 -0.18982865 379.34368801 -0.20252673 390.46403896 -0.21982501 C401.66769429 -0.23689071 412.8712773 -0.23833158 424.07494495 -0.22560637 C430.12833153 -0.21912198 436.18153648 -0.21879354 442.23490524 -0.23631287 C466.6974512 -0.30272869 490.57571368 -0.17683509 514.70732117 4.26742554 C515.53657407 4.41794412 516.36582698 4.5684627 517.22020876 4.72354245 C522.15343765 5.64098158 526.90519959 6.83322217 531.70732117 8.26742554 C532.74695007 8.57357788 533.78657898 8.87973022 534.85771179 9.19515991 C560.28996463 16.82624632 584.74741698 27.14749151 606.70732117 42.26742554 C607.39149109 42.72826538 608.07566101 43.18910522 608.78056335 43.66390991 C617.99179773 49.87661999 626.63319941 56.50096382 634.94950867 63.86898804 C637.65391653 66.32387936 637.65391653 66.32387936 640.70732117 68.26742554 C640.70732117 68.92742554 640.70732117 69.58742554 640.70732117 70.26742554 C641.27966492 70.51492554 641.85200867 70.76242554 642.44169617 71.01742554 C645.05742728 72.46058753 646.85505573 74.14958776 648.95732117 76.26742554 C650.01693054 77.31930054 650.01693054 77.31930054 651.09794617 78.39242554 C652.70732117 80.26742554 652.70732117 80.26742554 652.70732117 82.26742554 C653.36732117 82.26742554 654.02732117 82.26742554 654.70732117 82.26742554 C656.12438618 83.81631055 657.46541613 85.43504088 658.76982117 87.07992554 C662.31762623 91.5342824 662.31762623 91.5342824 665.94950867 95.91976929 C695.7855012 131.22392415 714.49809925 176.84859956 719.42210317 222.62041759 C719.59552741 224.22990702 719.77729628 225.83856432 719.97415805 227.44535542 C721.04305222 237.19346283 720.85260988 246.97780138 720.84776306 256.77011108 C720.85034957 258.86401073 720.85336353 260.95790988 720.85676646 263.05180836 C720.86480652 268.78963405 720.86662437 274.52744721 720.86736393 280.26527786 C720.86921979 286.46061791 720.87676994 292.65595153 720.88349915 298.85128784 C720.89777017 313.0991891 720.90360706 327.34708626 720.90819109 341.59499315 C720.9105314 348.64639466 720.91413459 355.69779535 720.91788647 362.74919622 C720.93072078 386.9191867 720.94143846 411.08917673 720.94488907 435.25917053 C720.9451107 436.77513339 720.94533248 438.29109625 720.94555442 439.80705911 C720.94577506 441.326551 720.94599554 442.84604289 720.94621587 444.36553478 C720.9466584 447.41356087 720.94710552 450.46158695 720.94755554 453.50961304 C720.94766493 454.26534057 720.94777432 455.0210681 720.94788703 455.79969646 C720.95151314 480.27339536 720.96741695 504.74706457 720.99074591 529.22075211 C721.01540384 555.13637061 721.02906473 581.05197216 721.03025699 606.96760273 C721.03042842 609.81881524 721.03064384 612.67002773 721.03089142 615.52124023 C721.03094719 616.22321505 721.03100296 616.92518987 721.03106041 617.64843666 C721.03220589 628.89256452 721.04318501 640.13666164 721.05777847 651.38077916 C721.07222492 662.70857486 721.07508476 674.03632069 721.0673385 685.36412704 C721.06345494 691.48794252 721.06424816 697.61165574 721.07839584 703.73545837 C721.23642885 776.41306795 707.37749093 846.24064368 654.74247742 900.37289429 C653.10993525 901.99584736 651.46319787 903.6048531 649.79325867 905.18930054 C647.56000463 907.41419032 645.67373518 909.80644059 643.70732117 912.26742554 C642.59569548 913.34552191 641.44926759 914.38897668 640.26982117 915.39242554 C639.57243835 915.98668335 638.87505554 916.58094116 638.15653992 917.19320679 C637.34829773 917.87769897 636.54005554 918.56219116 635.70732117 919.26742554 C634.74439148 920.10660522 633.78146179 920.94578491 632.78935242 921.81039429 C574.42223103 972.43567752 505.98540665 984.61495731 431.09892285 984.52887487 C425.2058264 984.52430481 419.31274132 984.53135649 413.41964722 984.53683472 C401.90732403 984.54568242 390.39502707 984.5438274 378.88270289 984.53800943 C369.51757845 984.53347442 360.15246155 984.53283553 350.78733635 984.53505707 C350.11906355 984.53520984 349.45079075 984.53536261 348.76226726 984.53552001 C346.04870598 984.53614281 343.33514471 984.53677962 340.62158344 984.53743954 C315.2271146 984.5435414 289.83265998 984.53803645 264.43819334 984.52724574 C241.93780711 984.51775743 219.43744353 984.51860475 196.9370575 984.52816772 C171.58699476 984.53890615 146.23694456 984.54310736 120.88687986 984.5369432 C118.17829383 984.53630188 115.46970779 984.53567619 112.76112175 984.53505707 C111.76092831 984.53481984 111.76092831 984.53481984 110.74052894 984.53457781 C100.72614525 984.53231476 90.71177229 984.53495394 80.6973896 984.54001617 C69.2955857 984.54565359 57.89380931 984.54404889 46.49200851 984.53345469 C40.68620945 984.52823607 34.88045606 984.52607535 29.07465744 984.53275299 C-24.96753064 984.58958011 -73.73078307 980.15528773 -122.29267883 954.26742554 C-123.38274231 953.69338989 -123.38274231 953.69338989 -124.49482727 953.10775757 C-138.88325227 945.49631142 -151.74615573 936.64875513 -164.29267883 926.26742554 C-165.2633429 925.48238647 -166.23400696 924.69734741 -167.23408508 923.88851929 C-180.17827304 913.30074955 -192.04911706 901.49400255 -202.29267883 888.26742554 C-203.16793676 887.19129424 -204.04567836 886.11717971 -204.92549133 885.04476929 C-211.83206727 876.56058601 -217.74627835 867.68994127 -223.29267883 858.26742554 C-223.90925354 857.23174438 -223.90925354 857.23174438 -224.5382843 856.17514038 C-246.18825178 819.56209503 -257.91241198 778.14659172 -258.60441589 735.64492798 C-258.62487952 734.53399072 -258.64534316 733.42305346 -258.6664269 732.27845144 C-258.73235034 728.53558934 -258.79050828 724.79266986 -258.84687805 721.0496521 C-258.86803714 719.69563032 -258.88921146 718.34160877 -258.91040015 716.98758745 C-259.52550588 676.97044982 -259.43985714 636.94755553 -259.42797924 596.92680739 C-259.4256658 588.92476845 -259.42542075 580.92273163 -259.4264946 572.92069244 C-259.42664783 571.76582138 -259.42680106 570.61095032 -259.42695894 569.42108317 C-259.42727876 567.07276056 -259.42760298 564.72443796 -259.42793153 562.37611535 C-259.43075338 540.58577589 -259.42754942 518.79544071 -259.42213117 497.00510195 C-259.41764444 478.38388218 -259.41846077 459.76266864 -259.42304993 441.14144897 C-259.42841723 419.3534619 -259.43050143 397.5654785 -259.42743766 375.77749085 C-259.4271192 373.45059093 -259.42680482 371.123691 -259.4264946 368.79679108 C-259.42634032 367.65272 -259.42618605 366.50864891 -259.4260271 365.32990901 C-259.42517001 357.3363401 -259.42660677 349.34277356 -259.42897415 341.34920502 C-259.4317955 331.61246016 -259.43098415 321.87572335 -259.42569341 312.13897941 C-259.423091 307.18949088 -259.42199187 302.24001572 -259.42534256 297.29052734 C-259.46111575 239.46656609 -259.46111575 239.46656609 -256.29267883 216.26742554 C-256.19229309 215.52766479 -256.09190735 214.78790405 -255.98847961 214.02572632 C-250.01864458 171.55619111 -231.82423976 131.83953806 -205.29267883 98.26742554 C-204.85729797 97.71635132 -204.42191711 97.1652771 -203.9733429 96.59750366 C-191.85391309 81.477157 -177.81400136 66.89617664 -162.29267883 55.26742554 C-161.39291321 54.56230835 -160.49314758 53.85719116 -159.56611633 53.13070679 C-113.37872006 17.46308136 -57.96811244 -0.10033268 0 0 Z " fill="#D7F703" transform="translate(281.2926788330078,19.732574462890625)"/>
<path d="M0 0 C64.02 0 128.04 0 194 0 C194.33 78.54 194.66 157.08 195 238 C200.62875989 226.74925943 200.62875989 226.74925943 206.24179077 215.49076843 C207.59853439 212.7630557 208.95807905 210.03674036 210.31738281 207.31030273 C211.01960514 205.90083295 211.72110864 204.49100479 212.421875 203.08081055 C216.4807786 194.91472814 220.61255827 186.79607302 224.8828125 178.73828125 C230.26373519 168.57865765 235.39053153 158.2981535 240.5 148 C247.16210659 134.57249834 253.95488611 121.23094808 261 108 C261.61263199 106.84907364 261.61263199 106.84907364 262.23764038 105.67489624 C263.01060591 104.22297268 263.78376333 102.77115126 264.55718994 101.31947327 C268.75957567 93.42099381 272.81448215 85.45999181 276.78808594 77.44433594 C290.40797979 49.97407461 290.40797979 49.97407461 297.10302734 37.36791992 C299.65035408 32.57091885 302.16706072 27.75899738 304.66015625 22.93359375 C304.97734116 22.31996475 305.29452606 21.70633575 305.62132263 21.07411194 C306.89513166 18.60903259 308.16855514 16.14376313 309.43869019 13.67678833 C310.32221514 11.96083831 311.20794015 10.24602163 312.09375 8.53125 C312.86235352 7.03948242 312.86235352 7.03948242 313.64648438 5.51757812 C315 3 315 3 317 0 C319.99561161 -0.29409822 322.78442776 -0.39088836 325.78237915 -0.36076355 C326.70288728 -0.36332682 327.62339541 -0.3658901 328.57179773 -0.36853105 C331.67515581 -0.37349654 334.77803394 -0.35693051 337.88134766 -0.34057617 C340.09836312 -0.3397305 342.31537943 -0.34020387 344.53239441 -0.34190369 C350.56728045 -0.34276739 356.60198902 -0.325081 362.63683367 -0.30418181 C368.93759807 -0.28547739 375.23836617 -0.28366951 381.53915405 -0.28010559 C392.11988351 -0.271829 402.70055452 -0.25306738 413.28125 -0.22631836 C424.18066073 -0.1987922 435.08005373 -0.17755157 445.97949219 -0.16479492 C446.98681502 -0.16361267 446.98681502 -0.16361267 448.01448782 -0.16240653 C451.38336247 -0.15849149 454.75223725 -0.15470035 458.12111211 -0.15097082 C486.08078695 -0.11958016 514.04038889 -0.066784 542 0 C540.05231265 4.01422964 537.68344691 7.70480705 535.25 11.4375 C534.75959229 12.19208496 534.26918457 12.94666992 533.76391602 13.72412109 C528.34181475 22.04475509 522.82180981 30.29953582 517.30078125 38.5546875 C514.64261167 42.53258211 511.99349579 46.51649153 509.34375 50.5 C498.44866658 66.87393779 487.5148841 83.21991354 476.49707031 99.51156616 C464.01226131 117.97369645 451.69171951 136.53816539 439.44836426 155.16114807 C438.8621228 156.05285202 438.27588135 156.94455597 437.671875 157.86328125 C437.09497925 158.74084579 436.5180835 159.61841034 435.92370605 160.52256775 C430.87354643 168.20083935 425.79112513 175.85718306 420.6875 183.5 C420.29990509 184.08046082 419.91231018 184.66092163 419.51296997 185.25897217 C417.94337738 187.60912001 416.37340338 189.95901232 414.8028717 192.30853271 C409.84588679 199.72448556 404.8999212 207.14778493 399.95278931 214.5703125 C397.95058325 217.57426058 395.94832326 220.57817219 393.94493103 223.58132935 C393.00597805 224.99060041 392.06865913 226.40096172 391.1330719 227.81246948 C388.80387576 231.32218454 386.44673661 234.80660793 384.03222656 238.25830078 C383.32448593 239.28269005 383.32448593 239.28269005 382.60244751 240.32777405 C381.70815099 241.62034344 380.80398978 242.9061624 379.88851929 244.18382263 C377.60187847 247.40606356 377.60187847 247.40606356 377.11010742 251.20922852 C378.71030585 254.4293809 380.69500111 257.3902457 382.6875 260.375 C383.69361278 261.90565588 384.69877454 263.43693718 385.703125 264.96875 C386.23873047 265.7834375 386.77433594 266.598125 387.32617188 267.4375 C390.23568846 271.89174242 393.0854319 276.38383946 395.9375 280.875 C396.82622803 282.27250488 396.82622803 282.27250488 397.73291016 283.69824219 C401.03127204 288.88819258 404.31646416 294.08623738 407.5925293 299.2902832 C412.75060742 307.4827265 417.98916776 315.61770304 423.28100586 323.72436523 C427.03901794 329.49206982 430.71430648 335.30531916 434.34570312 341.15332031 C437.2238654 345.78009322 440.15720164 350.36775574 443.125 354.9375 C453.16412711 370.3964126 463.08333562 385.93263171 472.91162109 401.52636719 C478.13325877 409.80723654 483.43307864 418.03648994 488.75390625 426.25390625 C489.23077881 426.99044434 489.70765137 427.72698242 490.19897461 428.48583984 C491.1094037 429.89146381 492.02032386 431.29676992 492.93188477 432.70166016 C496.65515045 438.44628769 500.330275 444.22105925 504 450 C513.69946455 465.28238237 513.69946455 465.28238237 523.5 480.5 C528.19204274 487.72849213 532.82432256 494.99396371 537.44604492 502.26757812 C542.05525822 509.5200252 546.6800042 516.762404 551.3125 524 C551.98700195 525.05461426 552.66150391 526.10922852 553.35644531 527.19580078 C556.217785 531.66708517 559.08245688 536.1357751 561.9765625 540.5859375 C562.40155029 541.24078125 562.82653809 541.895625 563.2644043 542.5703125 C564.33881813 544.22318805 565.41725403 545.87344734 566.49609375 547.5234375 C568 550 568 550 569 553 C494.42 553 419.84 553 343 553 C342.01 550.36 341.02 547.72 340 545 C339.22214302 543.40694522 338.40642524 541.83130206 337.5390625 540.28515625 C336.84200195 539.02832031 336.84200195 539.02832031 336.13085938 537.74609375 C335.63392578 536.86050781 335.13699219 535.97492187 334.625 535.0625 C330.12568106 526.93612272 325.75753449 518.75558041 321.5 510.5 C316.93219568 501.65612695 312.24459261 492.89026294 307.44921875 484.16796875 C303.87851929 477.65614052 300.41694535 471.09366708 297 464.5 C293.20634068 457.1825642 289.34439397 449.91110623 285.375 442.6875 C280.26451383 433.38005796 275.27318388 424.01280698 270.3125 414.625 C269.93054474 413.90224884 269.54858948 413.17949768 269.15505981 412.43484497 C267.59737396 409.48698878 266.03994001 406.53899973 264.4828949 403.59080505 C260.43645298 395.93003477 256.37682378 388.27629566 252.3125 380.625 C251.96253967 379.96599701 251.61257935 379.30699402 251.25201416 378.62802124 C245.63654703 368.0553346 239.98235294 357.50377789 234.31835938 346.95703125 C229.93472415 338.78049668 225.6293405 330.56592232 221.36401367 322.32714844 C217.37806253 314.65431089 213.24168091 307.06827488 209.00708008 299.52978516 C206.76475355 295.48515333 204.7183423 291.4846358 203.03125 287.17578125 C200.61144004 281.00991933 197.77571349 275.01404589 195 269 C194.505 409.58 194.505 409.58 194 553 C129.98 553 65.96 553 0 553 C0 370.51 0 188.02 0 0 Z " fill="#000000" transform="translate(259,223)"/>
<path d="M0 0 C3.10551666 3.10551666 3.81323934 4.89198233 5 9 C4.51293569 9.39945086 4.02587139 9.79890172 3.52404755 10.21045715 C1.57691057 12.49679333 1.62205984 13.657498 1.61523914 16.63268566 C1.6057826 17.5896258 1.59632606 18.54656594 1.58658296 19.53250426 C1.59143053 20.58599462 1.59627811 21.63948498 1.60127258 22.72489929 C1.59462576 23.84227236 1.58797893 24.95964543 1.58113068 26.11087829 C1.56240139 29.87438444 1.5651127 33.63757545 1.56762695 37.40112305 C1.55861585 40.09120039 1.54842209 42.7812489 1.53674316 45.47131348 C1.51392365 51.27277407 1.5020663 57.07417448 1.49761391 62.87567711 C1.49116069 71.26370157 1.46823799 79.6516171 1.44127061 88.03959773 C1.39796833 101.64788383 1.36802126 115.25616536 1.34643555 128.86450195 C1.32543615 142.08522798 1.29817016 155.30591652 1.26245117 168.52661133 C1.26025235 169.34127295 1.25805352 170.15593457 1.25578807 170.99528291 C1.24471867 175.08212274 1.23352582 179.16896223 1.22227156 183.25580156 C1.12903776 217.17050305 1.0574624 251.08521912 1 285 C0.67 285 0.34 285 0 285 C0 190.95 0 96.9 0 0 Z " fill="#C0E20D" transform="translate(453,491)"/>
<path d="M0 0 C0.33 0.99 0.66 1.98 1 3 C0.31292969 3.61488281 -0.37414062 4.22976562 -1.08203125 4.86328125 C-1.98308594 5.67152344 -2.88414063 6.47976562 -3.8125 7.3125 C-4.70582031 8.11300781 -5.59914063 8.91351563 -6.51953125 9.73828125 C-7.33808594 10.48464844 -8.15664062 11.23101562 -9 12 C-9.58136719 12.50917969 -10.16273437 13.01835938 -10.76171875 13.54296875 C-12.1467242 14.94019589 -12.1467242 14.94019589 -12.41796875 16.9375 C-13.25370582 19.89903809 -14.97864464 21.04429797 -17.3125 23 C-20.34037925 25.56243665 -23.22918062 28.1594346 -26 31 C-24.62267001 26.89715986 -22.76356341 24.33157616 -19.8125 21.1875 C-19.00554687 20.31738281 -18.19859375 19.44726562 -17.3671875 18.55078125 C-16.19542969 17.28814453 -16.19542969 17.28814453 -15 16 C-13.80698623 14.62978126 -12.61896418 13.25518972 -11.4375 11.875 C-7.822426 7.71681629 -3.94033303 3.84822135 0 0 Z " fill="#738306" transform="translate(98,94)"/>
<path d="M0 0 C4.89753317 0.48015031 7.8627538 1.44139397 12 4 C13.82566422 4.85767785 15.66660346 5.68339926 17.51953125 6.48046875 C18.54111328 6.92197266 19.56269531 7.36347656 20.61523438 7.81835938 C22.19788086 8.49608398 22.19788086 8.49608398 23.8125 9.1875 C25.42415039 9.88262695 25.42415039 9.88262695 27.06835938 10.59179688 C29.71089856 11.73102488 32.35479593 12.86697675 35 14 C31.39558077 15.20147308 30.66162613 14.72578419 27.24609375 13.3046875 C26.30830078 12.91796875 25.37050781 12.53125 24.40429688 12.1328125 C23.42525391 11.71773437 22.44621094 11.30265625 21.4375 10.875 C20.48552734 10.483125 19.53355469 10.09125 18.55273438 9.6875 C12.22812552 7.05260509 6.08650931 4.14437743 0 1 C0 0.67 0 0.34 0 0 Z " fill="#5C6709" transform="translate(165,976)"/>
<path d="M0 0 C7.61296032 0.26479862 14.78178998 1.21057966 22.1875 2.9375 C22.92991943 3.10733398 23.67233887 3.27716797 24.43725586 3.45214844 C29.74429777 4.74429777 29.74429777 4.74429777 32 7 C29.45724602 6.7161296 26.91608446 6.42316578 24.375 6.125 C23.66214844 6.04636719 22.94929687 5.96773437 22.21484375 5.88671875 C17.90258506 5.37241267 14.11123512 4.46177249 10 3 C8.21537517 2.59280391 6.42358522 2.21527288 4.625 1.875 C3.75101563 1.70742188 2.87703125 1.53984375 1.9765625 1.3671875 C1.32429687 1.24601562 0.67203125 1.12484375 0 1 C0 0.67 0 0.34 0 0 Z " fill="#545F06" transform="translate(783,23)"/>
<path d="M0 0 C3.10551666 3.10551666 3.81323934 4.89198233 5 9 C4.2884375 9.495 4.2884375 9.495 3.5625 10 C1.14208385 13.09813267 1.31801083 16.12026792 1 20 C0.67 20 0.34 20 0 20 C0 13.4 0 6.8 0 0 Z " fill="#BDD805" transform="translate(453,491)"/>
<path d="M0 0 C0.66 0.33 1.32 0.66 2 1 C1.113125 1.721875 0.22625 2.44375 -0.6875 3.1875 C-2.78579148 4.9262251 -4.64928847 6.66512477 -6.5625 8.625 C-9.96679196 11.94200243 -13.7478442 13.95266573 -18 16 C-14.46598313 11.46101788 -10.80512302 8.03287786 -6.1875 4.625 C-5.59001953 4.17511719 -4.99253906 3.72523437 -4.37695312 3.26171875 C-2.92271849 2.1681343 -1.4620285 1.08314264 0 0 Z " fill="#5A6704" transform="translate(128,68)"/>
<path d="M0 0 C2.97 0.495 2.97 0.495 6 1 C3.30621211 3.69378789 0.77425019 4.13672837 -2.875 5.1875 C-4.10992188 5.55230469 -5.34484375 5.91710937 -6.6171875 6.29296875 C-9.68905505 6.93501035 -11.14357992 7.12677877 -14 6 C-10.5647952 3.70986347 -9.014669 3.82157027 -5 4 C-5 3.34 -5 2.68 -5 2 C-3.35 2 -1.7 2 0 2 C0 1.34 0 0.68 0 0 Z " fill="#707B0B" transform="translate(821,989)"/>
<path d="M0 0 C0.33 0.99 0.66 1.98 1 3 C-0.56089026 4.41844009 -2.1237889 5.83467025 -3.6875 7.25 C-4.55761719 8.03890625 -5.42773438 8.8278125 -6.32421875 9.640625 C-8.82420863 11.84499564 -11.37945728 13.94133941 -14 16 C-12.34136495 11.67495164 -9.128959 8.90581175 -5.875 5.75 C-5.31167969 5.19570312 -4.74835938 4.64140625 -4.16796875 4.0703125 C-2.78313972 2.70895515 -1.39216796 1.35385141 0 0 Z " fill="#546207" transform="translate(98,94)"/>
<path d="M0 0 C2.31 0.33 4.62 0.66 7 1 C7 1.66 7 2.32 7 3 C7.99 3 8.98 3 10 3 C10.33 3.99 10.66 4.98 11 6 C6.95743617 4.77782954 3.50711041 3.37245704 0 1 C0 0.67 0 0.34 0 0 Z " fill="#6A7408" transform="translate(150,968)"/>
<path d="M0 0 C0 0.66 0 1.32 0 2 C-3.07115285 4.95303159 -5.8333396 5.52651586 -10 6 C-4.4 0 -4.4 0 0 0 Z " fill="#616C02" transform="translate(152,54)"/>
<path d="M0 0 C0.95465783 2.16967689 1.14401212 3.56328793 0.3984375 5.82421875 C-0.35870385 7.5684743 -1.17609198 9.28627131 -2 11 C-3.24386556 7.26840331 -2.77811718 4.81984796 -2 1 C-1.34 0.67 -0.68 0.34 0 0 Z " fill="#6A730B" transform="translate(987,831)"/>
<path d="M0 0 C0.33 1.32 0.66 2.64 1 4 C-0.9375 6.25 -0.9375 6.25 -3 8 C-3.66 7.67 -4.32 7.34 -5 7 C-3.35 4.69 -1.7 2.38 0 0 Z " fill="#B6D201" transform="translate(717,349)"/>
</svg>
